<svg width="25" height="25" viewBox="0 0 25 25" fill="none" xmlns="http://www.w3.org/2000/svg">
<path d="M14.0912 24.9997C13.9263 24.9997 13.7634 24.9482 13.6357 24.8445C13.4004 24.6535 13.3196 24.3757 13.33 24.0177C13.3561 23.1486 13.3366 22.2781 13.3379 21.4077C13.3385 20.931 13.5555 20.6637 14.0228 20.5809C15.3255 20.3481 16.5161 19.8467 17.5431 19.0147C19.7998 17.1864 20.8308 14.8124 20.6099 11.9083C20.503 10.5077 20.0149 9.24277 19.229 8.08672C18.9259 7.64139 18.952 7.34993 19.3365 6.96393C19.9849 6.31321 20.6346 5.66379 21.2863 5.01632C21.6552 4.64988 22.1107 4.66618 22.4222 5.07174C23.8167 6.88895 24.6952 8.92458 24.9233 11.2112C25.3703 15.6842 23.8454 19.3812 20.4294 22.2768C18.7011 23.7419 16.6744 24.6026 14.4301 24.9391C14.4099 24.9423 14.3897 24.9475 14.3695 24.9547C14.286 24.9834 14.1994 25.001 14.1114 25.001H14.0918L14.0912 24.9997Z" fill="#CCCCCC"/>
<path d="M0.0279709 10.8501C0.1759 10.2457 0.276258 9.62627 0.462636 9.03357C1.90544 4.44133 4.96308 1.48047 9.63035 0.358331C13.3709 -0.540816 16.8411 0.270307 19.9352 2.58762C20.3725 2.91494 20.411 3.37266 20.0317 3.75736C19.3637 4.43481 18.6899 5.1064 18.0148 5.77669C17.7176 6.07206 17.3631 6.09944 16.9995 5.8458C16.005 5.15205 14.9069 4.72171 13.7183 4.49676C10.1204 3.81669 6.22146 5.99251 4.9331 9.42479C4.7376 9.94576 4.60792 10.4941 4.47498 11.036C4.3655 11.4813 4.11721 11.7088 3.65778 11.7095C2.83668 11.7115 2.01492 11.6925 1.19446 11.7173C0.723956 11.7317 0.31601 11.6762 0.0748913 11.2303C0.0116791 11.1142 -0.00461264 10.9779 0.0273193 10.8495L0.0279709 10.8501Z" fill="#CCCCCC"/>
<path opacity="0.4" d="M0.0632029 13.8536C0.382522 13.3443 0.890174 13.3847 1.39783 13.3932C2.13682 13.4056 2.87582 13.3958 3.61547 13.3965C4.12051 13.3965 4.38313 13.6136 4.47697 14.1039C4.89535 16.2902 6.02209 18.02 7.84025 19.296C8.76954 19.9481 9.80244 20.3641 10.9181 20.5721C11.3436 20.6516 11.6519 21.022 11.6519 21.4549C11.6519 22.2999 11.6323 23.1456 11.6597 23.99C11.6597 23.9952 11.6597 24.0004 11.6597 24.0056C11.6753 24.6107 11.1143 25.0678 10.5225 24.9433C10.4372 24.925 10.3511 24.9074 10.2658 24.8898C5.11822 23.8159 1.81881 20.7461 0.359714 15.6968C0.216997 15.2033 0.134887 14.6921 0.0136759 14.1926C-0.014346 14.0772 -9.20571e-06 13.954 0.0632029 13.8536Z" fill="#CCCCCC"/>
<path d="M13.9935 11.7957C13.9935 12.9746 13.9935 14.1535 13.9935 15.3323C13.9935 15.8527 13.7009 16.1487 13.1828 16.1513C12.7358 16.1532 12.2887 16.1552 11.8417 16.15C11.4012 16.1448 11.0942 15.8357 11.0936 15.393C11.0916 12.9779 11.0923 10.5634 11.0936 8.14829C11.0936 7.70621 11.4005 7.3965 11.8404 7.39259C12.3037 7.38802 12.7671 7.38868 13.2304 7.39259C13.652 7.3965 13.9922 7.73882 13.9929 8.16068C13.9948 9.37215 13.9935 10.5836 13.9935 11.7951V11.7957Z" fill="#CCCCCC"/>
<path opacity="0.4" d="M6.70155 12.5046C6.70155 11.5533 6.7009 10.6026 6.70155 9.6513C6.70155 9.16162 6.99936 8.85908 7.48486 8.85647C7.9319 8.85386 8.37895 8.85256 8.826 8.85647C9.27304 8.86039 9.60083 9.21183 9.60149 9.64152C9.60344 11.5507 9.60344 13.4591 9.60149 15.3683C9.60149 15.798 9.2548 16.1475 8.82535 16.1507C8.36201 16.154 7.89867 16.1553 7.43598 16.1501C7.00914 16.1448 6.70415 15.8358 6.70285 15.4068C6.69959 14.4391 6.7022 13.4722 6.70155 12.5046Z" fill="#CCCCCC"/>
<path d="M15.4856 13.9494C15.4856 13.478 15.483 13.0066 15.4863 12.5358C15.4896 12.1048 15.7913 11.7925 16.2155 11.7866C16.6867 11.7801 17.1578 11.7801 17.629 11.7866C18.0884 11.7931 18.3908 12.1146 18.383 12.5841C18.3673 13.5262 18.4045 14.4697 18.383 15.4119C18.3726 15.8481 18.076 16.1454 17.6394 16.15C17.1767 16.1552 16.7134 16.1546 16.2507 16.15C15.7926 16.1461 15.4889 15.8422 15.4856 15.3865C15.4824 14.9072 15.485 14.4273 15.485 13.9481H15.4863L15.4856 13.9494Z" fill="#CCCCCC"/>
</svg>
