<svg width="22" height="23" viewBox="0 0 22 23" fill="none" xmlns="http://www.w3.org/2000/svg">
<path opacity="0.4" d="M4.16659 2.11217C4.16659 2.11978 4.16717 2.12681 4.16776 2.13442C4.16776 2.1432 4.16776 2.15198 4.16776 2.16076C4.17068 2.46932 4.3355 2.62858 4.64409 2.62917C4.65636 2.62917 4.66922 2.62917 4.68149 2.62917C4.68675 2.62917 4.69201 2.62917 4.69727 2.62917C5.12217 2.62917 5.54707 2.62917 5.97197 2.62917C6.82702 2.62917 7.68208 2.62917 8.53655 2.62917H8.54648C9.40154 2.62917 10.2566 2.62917 11.1111 2.62917C11.536 2.62917 11.9609 2.62917 12.3858 2.62917C12.391 2.62917 12.3963 2.62917 12.4015 2.62917C12.4138 2.62917 12.4267 2.62917 12.4389 2.62917C12.7475 2.62917 12.9124 2.46932 12.9153 2.16076C12.9153 2.15198 12.9153 2.1432 12.9153 2.13442C12.9153 2.12681 12.9159 2.11978 12.9164 2.11217C12.9176 1.95057 12.9176 1.78897 12.9182 1.62679C12.9194 1.24972 12.9199 0.872073 12.9164 0.49501C12.9135 0.155418 12.7551 0.000260223 12.4197 0.000260223C11.1268 0.000260223 9.83345 0.000260223 8.54064 0.000260223C7.24783 0.000260223 5.95443 -0.000325279 4.66162 0.000260223C4.32615 0.000260223 4.16776 0.155418 4.16484 0.49501C4.16191 0.872073 4.16191 1.24972 4.16308 1.62679C4.16308 1.78838 4.16308 1.94998 4.16484 2.11217H4.16659Z" fill="#CCCCCC"/>
<path d="M11.0836 20.9479C10.6569 20.2412 10.3425 19.4431 10.1484 18.5766C9.98538 17.8476 9.94038 17.1152 10.014 16.3997C10.1145 15.4225 10.4091 14.6274 10.9147 13.9692C11.0397 13.8065 11.1742 13.6566 11.3162 13.5208C11.7738 13.084 11.9749 12.4434 11.827 11.8281C11.7709 11.5939 11.7306 11.3643 11.7306 11.1887C11.7306 10.5786 12.1853 10.1184 12.7884 10.1184C12.8019 10.1184 12.8153 10.1184 12.8287 10.119C13.6709 10.1483 14.4109 10.3953 15.0251 10.8444C15.367 11.0944 15.8416 11.0429 16.1356 10.7379C16.3103 10.5569 16.6376 10.29 16.858 10.1161C17.0006 10.0036 17.0836 9.83209 17.0836 9.65V7.03163V3.74052C17.0836 2.39269 15.993 1.29956 14.647 1.29956H14.0771C13.8077 1.29956 13.5891 1.51854 13.5891 1.78846V2.3078C13.5891 2.79903 13.1917 3.19717 12.7013 3.19717H4.38165C3.89129 3.19717 3.49386 2.79903 3.49386 2.3078V1.78846C3.49386 1.51854 3.27528 1.29956 3.00584 1.29956H2.436C1.09059 1.30015 0 2.39269 0 3.74052V19.4127C0 20.7605 1.09059 21.8536 2.43659 21.8536H10.8171C11.1823 21.8536 11.4027 21.449 11.2046 21.1417C11.1642 21.079 11.1239 21.014 11.0836 20.9479Z" fill="#CCCCCC"/>
<path opacity="0.4" d="M18.3501 11.0601C18.4822 11.1327 18.5979 11.2176 18.6055 11.3874C18.6119 11.5279 18.5517 11.6327 18.4366 11.7106C17.8317 12.1216 17.3501 12.645 17.0181 13.2978C16.941 13.4495 16.8405 13.5432 16.6914 13.6146C16.145 13.8769 16.2367 13.8728 15.6961 13.6111C15.3618 13.4489 15.0263 13.2955 14.6593 13.2194C14.2776 13.1398 13.8995 13.1368 13.5237 13.2387C13.4454 13.2598 13.4068 13.2452 13.37 13.1714C13.1502 12.7323 13.0222 12.2715 13.0222 11.7785C13.0222 11.5566 13.1718 11.4032 13.3951 11.4114C14.6528 11.4553 15.5739 12.0437 16.1748 13.1462C16.1946 13.1831 16.2046 13.227 16.2455 13.2534C16.2905 13.2182 16.3028 13.1638 16.3261 13.1163C16.737 12.2785 17.3267 11.5999 18.1111 11.0923C18.1227 11.0846 18.1315 11.0712 18.1414 11.0601C18.211 11.0601 18.2811 11.0601 18.3507 11.0601H18.3501Z" fill="#CCCCCC"/>
<path d="M21.0971 17.8753C21.0486 19.2126 20.5921 20.6324 19.6126 21.8637C19.2754 22.2876 18.8715 22.6366 18.3636 22.8462C17.8125 23.074 17.2713 23.0476 16.7417 22.773C16.6213 22.711 16.501 22.6483 16.3782 22.5921C16.2444 22.5306 16.11 22.5359 15.9744 22.5962C15.7733 22.6864 15.5869 22.807 15.3788 22.8831C14.7739 23.1033 14.2064 23.0008 13.6699 22.6747C13.0644 22.307 12.6336 21.7712 12.273 21.174C11.8674 20.5024 11.5933 19.7764 11.4226 19.0129C11.2789 18.3706 11.2339 17.7178 11.3011 17.0614C11.3788 16.3073 11.5904 15.5989 12.0597 14.9882C12.4986 14.4167 13.0685 14.0432 13.7733 13.8904C14.1509 13.8084 14.5185 13.874 14.8762 14.0063C15.1123 14.0935 15.3373 14.2065 15.5588 14.3254C15.9802 14.5514 16.394 14.5608 16.8183 14.3295C17.11 14.1708 17.4074 14.0198 17.7301 13.929C18.2911 13.7709 18.8154 13.8869 19.3174 14.1509C20.1544 14.5912 20.6441 15.3049 20.9054 16.1932C21.0445 16.6674 21.0936 17.1557 21.0971 17.8741V17.8753Z" fill="#CCCCCC"/>
</svg>
