<svg width="15" height="20" viewBox="0 0 15 20" fill="none" xmlns="http://www.w3.org/2000/svg">
<path fill-rule="evenodd" clip-rule="evenodd" d="M6.92381 0.0142767C5.18945 0.235577 3.76127 1.09803 2.83805 2.48162C2.40749 3.12688 2.14986 3.74902 1.98712 4.53646C1.91284 4.89578 1.89887 5.15407 1.87902 6.53687L1.85626 8.1247H1.7239C1.55988 8.1247 1.19531 8.23085 0.977311 8.34202C0.537671 8.56631 0.140312 9.11891 0.0460919 9.63715C-0.0131844 9.9633 -0.0163348 18.147 0.0427342 18.4659C0.178407 19.1986 0.757035 19.7939 1.48526 19.95C1.79379 20.0162 13.2093 20.0169 13.523 19.9508C14.2527 19.7971 14.8326 19.1968 14.9669 18.4561C14.9944 18.3044 15.0052 16.7142 14.9977 13.9106C14.9863 9.61381 14.9859 9.59754 14.8972 9.36566C14.7748 9.04544 14.6399 8.84348 14.3967 8.61633C14.0932 8.33288 13.622 8.1247 13.2839 8.1247H13.1511L13.131 6.57838C13.1095 4.92223 13.0817 4.64389 12.8676 3.93611C12.2896 2.02573 10.6469 0.527696 8.6749 0.112494C8.28036 0.0294286 7.2555 -0.0280654 6.92381 0.0142767ZM8.5556 1.37657C9.32823 1.57284 9.93852 1.90286 10.4868 2.4208C11.1783 3.07412 11.6162 3.87579 11.7939 4.81413C11.8425 5.07088 11.8566 5.47886 11.8566 6.63484V8.1247H7.50413H3.15167V6.63484C3.15167 5.03252 3.17468 4.78461 3.37933 4.18207C3.9066 2.62961 5.31219 1.48388 6.94453 1.27599C7.39047 1.2192 8.11389 1.26437 8.5556 1.37657ZM13.4324 9.44739C13.5119 9.48994 13.6142 9.588 13.6598 9.66533C13.7412 9.80348 13.7427 9.88049 13.7427 14.0609C13.7427 18.1564 13.7397 18.3207 13.6645 18.4451C13.6215 18.5162 13.5282 18.6096 13.4572 18.6527C13.3324 18.7284 13.137 18.731 7.50413 18.731C1.87126 18.731 1.6759 18.7284 1.55105 18.6527C1.48004 18.6096 1.38677 18.5162 1.34379 18.4451C1.26855 18.3207 1.26561 18.1564 1.26561 14.0609C1.26561 9.88049 1.26706 9.80348 1.34851 9.66533C1.39411 9.588 1.49641 9.48994 1.57584 9.44739C1.71478 9.37301 1.94128 9.37006 7.50413 9.37006C13.067 9.37006 13.2935 9.37301 13.4324 9.44739ZM7.00671 11.3134C5.86458 11.6124 5.30685 12.8801 5.83714 13.9716C5.98562 14.2772 6.3167 14.6038 6.62767 14.7515L6.87821 14.8704L6.88032 15.6384C6.88215 16.284 6.89404 16.4292 6.95498 16.5502C7.16186 16.9609 7.8464 16.9609 8.05329 16.5502C8.11422 16.4292 8.12612 16.284 8.12794 15.6384L8.13006 14.8704L8.38059 14.7515C8.51954 14.6854 8.72626 14.537 8.84481 14.4179C9.71804 13.5411 9.46742 11.9889 8.3655 11.4491C7.92035 11.231 7.48685 11.1877 7.00671 11.3134ZM7.84429 12.5917C8.17939 12.7652 8.21715 13.2971 7.91496 13.587C7.80018 13.6972 7.76279 13.708 7.4982 13.708C7.2165 13.708 7.20332 13.7034 7.06822 13.5557C6.91564 13.389 6.85823 13.1857 6.9003 12.961C6.97326 12.5716 7.44738 12.3861 7.84429 12.5917Z" fill="black"/>
</svg>
