<svg width="23" height="25" viewBox="0 0 23 25" fill="none" xmlns="http://www.w3.org/2000/svg">
<path opacity="0.4" d="M7.42578 2.47377C6.51965 2.47377 5.61311 2.47377 4.70698 2.47377C4.45929 2.47377 4.33338 2.31401 4.33173 1.98733C4.32884 1.47884 4.32925 0.970357 4.33173 0.461873C4.33338 0.168793 4.46011 0.00131793 4.67767 0.00131793C6.50561 0.000216122 8.33397 -0.000334781 10.1619 0.000216122C10.3989 0.000216122 10.5107 0.146206 10.5128 0.46573C10.5161 0.987986 10.5157 1.51024 10.512 2.0325C10.5099 2.32283 10.3935 2.47267 10.1755 2.47322C9.25909 2.47488 8.34223 2.47377 7.42578 2.47377Z" fill="#295EF4"/>
<path d="M4.86764 17.0483L5.14827 16.7661C5.41027 16.5026 5.68158 16.2298 5.95083 15.9627C6.36557 15.5524 6.86212 15.335 7.38715 15.335C7.91217 15.335 8.42478 15.5622 8.83641 15.9746L9.03161 16.1707C9.31277 16.4528 9.76531 16.4404 10.0439 16.1556C10.0459 16.1536 10.048 16.1515 10.0501 16.1494C10.9427 15.2494 11.8856 14.3044 12.9331 13.2612C12.9352 13.2592 12.9372 13.2571 12.9398 13.255C13.2494 12.9511 13.2619 12.4562 12.9548 12.1491C12.9077 12.1024 12.8611 12.0552 12.814 12.0086C12.3894 11.5848 12.1776 11.0967 12.1673 10.5168V10.4976V10.4784C12.1895 9.97574 12.3811 9.52602 12.7218 9.17849L12.887 9.00939C13.2406 8.64837 13.6057 8.27438 13.9836 7.91751C14.1877 7.72455 14.4238 7.57983 14.6764 7.48905C14.9493 7.39154 15.1357 7.13841 15.1357 6.84793V3.93227C15.1357 2.7382 14.1695 1.76978 12.9771 1.76978H12.4723C12.2336 1.76978 12.0399 1.96377 12.0399 2.2029V2.66299C12.0399 3.09819 11.6878 3.45091 11.2534 3.45091H3.8823C3.44789 3.45091 3.0958 3.09819 3.0958 2.66299V2.2029C3.0958 1.96377 2.90215 1.76978 2.66345 1.76978H2.15862C0.96669 1.76978 0 2.73768 0 3.93227V17.8165C0 19.0106 0.966172 19.979 2.15862 19.979H4.21524C4.47982 19.979 4.64396 19.6891 4.50675 19.4624C3.96463 18.5681 4.15 17.7688 4.8666 17.0488L4.86764 17.0483Z" fill="#295EF4"/>
<path d="M14.4763 14.1344C14.2653 13.9256 13.9658 13.9281 13.7554 14.1384C12.8305 15.0599 11.9076 15.9834 10.9882 16.9109C10.7688 17.1321 10.7738 17.4222 10.9922 17.643C11.5698 18.2275 12.1499 18.8091 12.7325 19.3887C12.9663 19.621 13.2569 19.6275 13.4882 19.3972C14.4066 18.4837 15.3205 17.5652 16.235 16.6477C16.3385 16.5441 16.3997 16.418 16.3992 16.2665C16.3967 16.1284 16.3464 16.0083 16.2509 15.9121C15.6609 15.3181 15.0718 14.7235 14.4768 14.1344H14.4763Z" fill="#295EF4"/>
<path opacity="0.4" d="M8.61293 16.9076C8.03328 16.3264 7.26605 16.3209 6.68193 16.8986C6.33364 17.243 5.98933 17.5919 5.64403 17.9388C5.05642 18.5289 5.05592 19.2949 5.64204 19.8826C5.80374 20.0445 5.96545 20.207 6.12715 20.369C6.09581 20.4019 6.06645 20.4443 6.03809 20.4966C5.77289 20.9855 5.84106 21.5961 6.22567 21.9878C6.88244 22.6567 7.54618 23.3186 8.2129 23.9775C8.44625 24.2077 8.73981 24.3144 9.06621 24.3239C9.30453 24.3219 9.52445 24.2611 9.72845 24.142C9.76626 24.1195 9.79811 24.0961 9.82448 24.0712C9.99414 24.2406 10.1638 24.4111 10.334 24.5806C10.8678 25.1129 11.6321 25.1433 12.159 24.6453C12.5685 24.2581 12.9606 23.8524 13.3551 23.4502C13.5934 23.2069 13.7039 22.9049 13.7178 22.5934C13.7104 22.1717 13.5502 21.8508 13.272 21.5732C11.7167 20.0206 10.1648 18.4636 8.61293 16.9076Z" fill="#295EF4"/>
<path d="M21.6836 13.1586C21.5219 12.9966 21.3602 12.8341 21.1985 12.6721C21.2298 12.6392 21.2592 12.5969 21.2875 12.5445C21.5527 12.0556 21.4846 11.445 21.0999 11.0533C20.4432 10.3844 19.7794 9.72254 19.1127 9.06364C18.8794 8.83337 18.5858 8.72672 18.2594 8.71725C18.0211 8.71974 17.8012 8.78004 17.5972 8.89916C17.5594 8.92159 17.5275 8.94502 17.5011 8.96994C17.3315 8.80048 17.1618 8.63002 16.9916 8.46057C16.4578 7.92827 15.6935 7.89786 15.1666 8.39577C14.7571 8.78304 14.3651 9.18874 13.9705 9.59096C13.7322 9.83418 13.6217 10.1362 13.6078 10.4477C13.6153 10.8694 13.7755 11.1903 14.0536 11.468C15.6089 13.0205 17.1603 14.5775 18.7122 16.1336C19.2918 16.7147 20.0591 16.7202 20.6432 16.1425C20.9915 15.7981 21.3358 15.4492 21.6811 15.1024C22.2687 14.5122 22.2697 13.7462 21.6836 13.1586Z" fill="#295EF4"/>
</svg>
