<svg width="24" height="24" viewBox="0 0 24 24" fill="none" xmlns="http://www.w3.org/2000/svg">
<rect x="20.2049" y="0.380615" width="2.29311" height="28.5288" rx="1.14656" transform="rotate(45 20.2049 0.380615)" fill="#D9D9D9"/>
<path fill-rule="evenodd" clip-rule="evenodd" d="M17.4199 5.81857C15.79 4.63997 13.9429 4.00141 12.0029 4H11.9969C7.86187 4.003 4.14687 6.902 2.06087 11.756C1.97987 11.945 1.97987 12.159 2.06087 12.348C2.98326 14.4948 4.22396 16.2591 5.67871 17.5598L6.74257 16.4959C5.48817 15.3941 4.40171 13.8897 3.56987 12.052C5.42987 7.944 8.56387 5.501 11.9999 5.5C13.5368 5.50045 15.013 5.98921 16.3417 6.8968L17.4199 5.81857ZM19.5043 7.76105L18.4391 8.82625C19.1998 9.73778 19.8721 10.82 20.4299 12.052C18.5699 16.161 15.4369 18.604 11.9999 18.605C11.0408 18.6047 10.1054 18.4143 9.21475 18.0506L8.07821 19.1871C9.30933 19.7867 10.6301 20.104 11.9969 20.105H12.0029C16.1389 20.102 19.8539 17.203 21.9389 12.348C22.0209 12.159 22.0209 11.945 21.9389 11.756C21.278 10.2181 20.4537 8.87651 19.5043 7.76105ZM11.3555 15.9098C11.5651 15.9447 11.7803 15.9628 11.9996 15.9628C14.1566 15.9628 15.9116 14.2088 15.9116 12.0528C15.9116 11.8329 15.8933 11.6172 15.8583 11.4071L14.1778 13.0876C13.9398 13.5858 13.5354 13.9901 13.037 14.2283L11.3555 15.9098ZM13.2485 9.98997C12.884 9.76846 12.4564 9.6408 11.9996 9.6408C10.6696 9.6408 9.58857 10.7228 9.58857 12.0528C9.58857 12.5094 9.71615 12.9366 9.93757 13.3009L8.85844 14.38C8.3749 13.7294 8.08857 12.9239 8.08857 12.0528C8.08857 9.8958 9.84257 8.1408 11.9996 8.1408C12.8709 8.1408 13.6767 8.4272 14.3277 8.91081L13.2485 9.98997Z" fill="#D9D9D9"/>
</svg>
