<svg width="16" height="20" viewBox="0 0 16 20" fill="none" xmlns="http://www.w3.org/2000/svg">
<path fill-rule="evenodd" clip-rule="evenodd" d="M7.877 12.456L7.99611 12.456L8.26007 12.4567C10.502 12.4687 15.754 12.6725 15.754 16.137C15.754 19.3491 11.4406 19.7783 8.0854 19.7945L7.49393 19.7943C5.25199 19.7823 0 19.5785 0 16.115C0 12.835 4.495 12.456 7.877 12.456ZM7.877 13.956C3.646 13.956 1.5 14.683 1.5 16.115C1.5 17.561 3.646 18.295 7.877 18.295C12.108 18.295 14.254 17.568 14.254 16.137C14.254 14.689 12.108 13.956 7.877 13.956ZM7.877 0C10.81 0 13.195 2.386 13.195 5.318C13.195 8.25 10.81 10.636 7.877 10.636H7.846C6.427 10.631 5.097 10.074 4.1 9.07C3.102 8.065 2.555 6.731 2.55997 5.315C2.55997 2.386 4.945 0 7.877 0ZM7.877 1.5C5.773 1.5 4.05997 3.213 4.05997 5.318C4.056 6.337 4.448 7.292 5.163 8.013C5.879 8.733 6.833 9.132 7.849 9.136L7.877 9.877V9.136C9.982 9.136 11.695 7.423 11.695 5.318C11.695 3.213 9.982 1.5 7.877 1.5Z" fill="black"/>
</svg>
